{
  "accessors": [
    {
      "bufferView": 2,
      "componentType": 5126,
      "count": 22326,
      "max": [
        0.040144599974155426,
        0.025022700428962708,
        0.015783099457621574
      ],
      "min": [
        -0.03397409990429878,
        -0.028613900765776634,
        -0.018605800345540047
      ],
      "type": "VEC3"
    },
    {
      "bufferView": 2,
      "byteOffset": 267912,
      "componentType": 5126,
      "count": 22326,
      "max": [
        0.9999628663063049,
        0.9999391436576843,
        0.9999960064888
      ],
      "min": [
        -0.9998884797096252,
        -0.9999883770942688,
        -0.9999926686286926
      ],
      "type": "VEC3"
    },
    {
      "bufferView": 1,
      "componentType": 5126,
      "count": 22326,
      "max": [
        0.9997820258140564,
        0.972025990486145
      ],
      "min": [
        3.4827899071387947e-05,
        0.00021200500486884266
      ],
      "type": "VEC2"
    },
    {
      "bufferView": 0,
      "componentType": 5125,
      "count": 127260,
      "type": "SCALAR"
    }
  ],
  "asset": {
    "extras": {
      "author": "Terrie Simmons-Ehrhardt (https://sketchfab.com/terrielsimmons)",
      "license": "CC-BY-4.0 (http://creativecommons.org/licenses/by/4.0/)",
      "source": "https://sketchfab.com/3d-models/amazonite-ff71e7d7a18f4d738bcba6899a00a5e2",
      "title": "Amazonite"
    },
    "generator": "Sketchfab-13.74.0",
    "version": "2.0"
  },
  "bufferViews": [
    {
      "buffer": 0,
      "byteLength": 509040,
      "name": "floatBufferViews",
      "target": 34963
    },
    {
      "buffer": 0,
      "byteLength": 178608,
      "byteOffset": 509040,
      "byteStride": 8,
      "name": "floatBufferViews",
      "target": 34962
    },
    {
      "buffer": 0,
      "byteLength": 535824,
      "byteOffset": 687648,
      "byteStride": 12,
      "name": "floatBufferViews",
      "target": 34962
    }
  ],
  "buffers": [
    {
      "byteLength": 1223472,
      "uri": "scene.bin"
    }
  ],
  "extensionsUsed": [
    "KHR_materials_unlit"
  ],
  "images": [
    {
      "uri": "textures/material_1_baseColor.png"
    }
  ],
  "materials": [
    {
      "doubleSided": true,
      "extensions": {
        "KHR_materials_unlit": {}
      },
      "name": "material_1",
      "pbrMetallicRoughness": {
        "baseColorTexture": {
          "index": 0
        },
        "metallicFactor": 0.0
      }
    }
  ],
  "meshes": [
    {
      "name": "Object_0",
      "primitives": [
        {
          "attributes": {
            "NORMAL": 1,
            "POSITION": 0,
            "TEXCOORD_0": 2
          },
          "indices": 3,
          "material": 0,
          "mode": 4
        }
      ]
    }
  ],
  "nodes": [
    {
      "children": [
        1
      ],
      "matrix": [
        2.4008102416992188,
        0.0,
        0.0,
        0.0,
        0.0,
        5.33086961618072e-16,
        -2.4008102416992188,
        0.0,
        0.0,
        2.4008102416992188,
        5.33086961618072e-16,
        0.0,
        0.0,
        0.0,
        0.0,
        1.0
      ],
      "name": "Sketchfab_model"
    },
    {
      "children": [
        2
      ],
      "name": "output.obj.cleaner.materialmerger.gles"
    },
    {
      "mesh": 0,
      "name": "Object_2"
    }
  ],
  "samplers": [
    {
      "magFilter": 9729,
      "minFilter": 9987,
      "wrapS": 10497,
      "wrapT": 10497
    }
  ],
  "scene": 0,
  "scenes": [
    {
      "name": "Sketchfab_Scene",
      "nodes": [
        0
      ]
    }
  ],
  "textures": [
    {
      "sampler": 0,
      "source": 0
    }
  ]
}
