{
  "accessors": [
    {
      "bufferView": 2,
      "componentType": 5126,
      "count": 943,
      "max": [
        1.1216115951538086,
        1.0069372653961182,
        1.1214004755020142
      ],
      "min": [
        -1.1219104528427124,
        -1.0,
        -1.122121810913086
      ],
      "type": "VEC3"
    },
    {
      "bufferView": 2,
      "byteOffset": 11316,
      "componentType": 5126,
      "count": 943,
      "max": [
        1.0,
        0.9747673273086548,
        1.0
      ],
      "min": [
        -1.0,
        -0.9521554112434387,
        -1.0
      ],
      "type": "VEC3"
    },
    {
      "bufferView": 1,
      "componentType": 5126,
      "count": 943,
      "max": [
        1.0,
        0.978293776512146
      ],
      "min": [
        0.0,
        0.012241264805197716
      ],
      "type": "VEC2"
    },
    {
      "bufferView": 0,
      "componentType": 5125,
      "count": 3060,
      "type": "SCALAR"
    },
    {
      "bufferView": 2,
      "byteOffset": 22632,
      "componentType": 5126,
      "count": 66,
      "max": [
        1.0,
        0.5,
        1.0
      ],
      "min": [
        -1.0,
        0.375,
        -1.0
      ],
      "type": "VEC3"
    },
    {
      "bufferView": 2,
      "byteOffset": 23424,
      "componentType": 5126,
      "count": 66,
      "max": [
        1.0,
        0.0,
        1.0
      ],
      "min": [
        -1.0,
        0.0,
        -1.0
      ],
      "type": "VEC3"
    },
    {
      "bufferView": 1,
      "byteOffset": 7544,
      "componentType": 5126,
      "count": 66,
      "max": [
        1.0,
        0.875
      ],
      "min": [
        0.0,
        0.8437499403953552
      ],
      "type": "VEC2"
    },
    {
      "bufferView": 0,
      "byteOffset": 12240,
      "componentType": 5125,
      "count": 192,
      "type": "SCALAR"
    },
    {
      "bufferView": 2,
      "byteOffset": 24216,
      "componentType": 5126,
      "count": 66,
      "max": [
        1.0,
        0.25,
        1.0
      ],
      "min": [
        -1.0,
        0.125,
        -1.0
      ],
      "type": "VEC3"
    },
    {
      "bufferView": 2,
      "byteOffset": 25008,
      "componentType": 5126,
      "count": 66,
      "max": [
        0.9951847195625305,
        0.0,
        1.0
      ],
      "min": [
        -1.0,
        0.0,
        -1.0
      ],
      "type": "VEC3"
    },
    {
      "bufferView": 1,
      "byteOffset": 8072,
      "componentType": 5126,
      "count": 66,
      "max": [
        1.0,
        0.8125
      ],
      "min": [
        0.0,
        0.78125
      ],
      "type": "VEC2"
    },
    {
      "bufferView": 0,
      "byteOffset": 13008,
      "componentType": 5125,
      "count": 186,
      "type": "SCALAR"
    },
    {
      "bufferView": 2,
      "byteOffset": 25800,
      "componentType": 5126,
      "count": 66,
      "max": [
        1.0,
        0.0,
        1.0
      ],
      "min": [
        -1.0,
        -0.125,
        -1.0
      ],
      "type": "VEC3"
    },
    {
      "bufferView": 2,
      "byteOffset": 26592,
      "componentType": 5126,
      "count": 66,
      "max": [
        1.0,
        0.0,
        1.0
      ],
      "min": [
        -1.0,
        0.0,
        -1.0
      ],
      "type": "VEC3"
    },
    {
      "bufferView": 1,
      "byteOffset": 8600,
      "componentType": 5126,
      "count": 66,
      "max": [
        1.0,
        0.75
      ],
      "min": [
        0.0,
        0.71875
      ],
      "type": "VEC2"
    },
    {
      "bufferView": 0,
      "byteOffset": 13752,
      "componentType": 5125,
      "count": 192,
      "type": "SCALAR"
    },
    {
      "bufferView": 2,
      "byteOffset": 27384,
      "componentType": 5126,
      "count": 4,
      "max": [
        1.0,
        0.25,
        4.371138828673793e-08
      ],
      "min": [
        0.9807852506637573,
        0.125,
        -0.19509035348892212
      ],
      "type": "VEC3"
    },
    {
      "bufferView": 2,
      "byteOffset": 27432,
      "componentType": 5126,
      "count": 4,
      "max": [
        0.9951847195625305,
        0.0,
        -0.09801725298166275
      ],
      "min": [
        0.9951847195625305,
        0.0,
        -0.09801725298166275
      ],
      "type": "VEC3"
    },
    {
      "bufferView": 1,
      "byteOffset": 9128,
      "componentType": 5126,
      "count": 4,
      "max": [
        0.78125,
        0.8125
      ],
      "min": [
        0.75,
        0.78125
      ],
      "type": "VEC2"
    },
    {
      "bufferView": 0,
      "byteOffset": 14520,
      "componentType": 5125,
      "count": 6,
      "type": "SCALAR"
    },
    {
      "bufferView": 2,
      "byteOffset": 27480,
      "componentType": 5126,
      "count": 130,
      "max": [
        1.0,
        1.0,
        1.0
      ],
      "min": [
        -1.0,
        -1.0,
        -1.0
      ],
      "type": "VEC3"
    },
    {
      "bufferView": 2,
      "byteOffset": 29040,
      "componentType": 5126,
      "count": 130,
      "max": [
        1.0,
        1.0,
        1.0
      ],
      "min": [
        -1.0,
        -1.0,
        -1.0
      ],
      "type": "VEC3"
    },
    {
      "bufferView": 1,
      "byteOffset": 9160,
      "componentType": 5126,
      "count": 130,
      "max": [
        1.0,
        1.0
      ],
      "min": [
        0.0,
        0.01000000536441803
      ],
      "type": "VEC2"
    },
    {
      "bufferView": 0,
      "byteOffset": 14544,
      "componentType": 5125,
      "count": 372,
      "type": "SCALAR"
    },
    {
      "bufferView": 2,
      "byteOffset": 30600,
      "componentType": 5126,
      "count": 66,
      "max": [
        1.0678467750549316,
        -0.5,
        1.067846655845642
      ],
      "min": [
        -1.0678467750549316,
        -0.6530964374542236,
        -1.0678467750549316
      ],
      "type": "VEC3"
    },
    {
      "bufferView": 2,
      "byteOffset": 31392,
      "componentType": 5126,
      "count": 66,
      "max": [
        0.9142456650733948,
        0.4051607847213745,
        0.9142459034919739
      ],
      "min": [
        -0.9142456650733948,
        0.4051598906517029,
        -0.9142454862594604
      ],
      "type": "VEC3"
    },
    {
      "bufferView": 1,
      "byteOffset": 10200,
      "componentType": 5126,
      "count": 66,
      "max": [
        1.0,
        0.625
      ],
      "min": [
        0.0,
        0.5867258310317993
      ],
      "type": "VEC2"
    },
    {
      "bufferView": 0,
      "byteOffset": 16032,
      "componentType": 5125,
      "count": 192,
      "type": "SCALAR"
    }
  ],
  "asset": {
    "extras": {
      "author": "LucHi (https://sketchfab.com/reajeans)",
      "license": "CC-BY-4.0 (http://creativecommons.org/licenses/by/4.0/)",
      "source": "https://sketchfab.com/3d-models/resistor-7d5dc04ce44e4c0eac5576f3339a9406",
      "title": "Resistor"
    },
    "generator": "Sketchfab-14.20.0",
    "version": "2.0"
  },
  "bufferViews": [
    {
      "buffer": 0,
      "byteLength": 16800,
      "name": "floatBufferViews",
      "target": 34963
    },
    {
      "buffer": 0,
      "byteLength": 10728,
      "byteOffset": 16800,
      "byteStride": 8,
      "name": "floatBufferViews",
      "target": 34962
    },
    {
      "buffer": 0,
      "byteLength": 32184,
      "byteOffset": 27528,
      "byteStride": 12,
      "name": "floatBufferViews",
      "target": 34962
    }
  ],
  "buffers": [
    {
      "byteLength": 59712,
      "uri": "scene.bin"
    }
  ],
  "images": [
    {
      "uri": "textures/Material.006_baseColor.png"
    },
    {
      "uri": "textures/Material.007_baseColor.png"
    }
  ],
  "materials": [
    {
      "doubleSided": true,
      "name": "Material.004",
      "pbrMetallicRoughness": {
        "baseColorFactor": [
          0.442551,
          0.250177,
          0.053756,
          1.0
        ],
        "metallicFactor": 0.0,
        "roughnessFactor": 0.5
      }
    },
    {
      "doubleSided": true,
      "name": "Material.002",
      "pbrMetallicRoughness": {
        "baseColorFactor": [
          0.947307,
          0.00182116,
          0.00560539,
          1.0
        ],
        "metallicFactor": 0.0,
        "roughnessFactor": 0.5
      }
    },
    {
      "doubleSided": true,
      "name": "Material.003",
      "pbrMetallicRoughness": {
        "baseColorFactor": [
          0.201556,
          0.00273174,
          0.00334654,
          1.0
        ],
        "metallicFactor": 0.0,
        "roughnessFactor": 0.5
      }
    },
    {
      "doubleSided": true,
      "name": "Material.006",
      "pbrMetallicRoughness": {
        "baseColorTexture": {
          "index": 0
        },
        "metallicFactor": 0.0,
        "roughnessFactor": 0.5
      }
    },
    {
      "doubleSided": true,
      "name": "Material.007",
      "pbrMetallicRoughness": {
        "baseColorTexture": {
          "index": 1
        },
        "metallicFactor": 0.0,
        "roughnessFactor": 0.5
      }
    }
  ],
  "meshes": [
    {
      "name": "Object_0",
      "primitives": [
        {
          "attributes": {
            "NORMAL": 1,
            "POSITION": 0,
            "TEXCOORD_0": 2
          },
          "indices": 3,
          "material": 0,
          "mode": 4
        }
      ]
    },
    {
      "name": "Object_1",
      "primitives": [
        {
          "attributes": {
            "NORMAL": 5,
            "POSITION": 4,
            "TEXCOORD_0": 6
          },
          "indices": 7,
          "material": 1,
          "mode": 4
        }
      ]
    },
    {
      "name": "Object_2",
      "primitives": [
        {
          "attributes": {
            "NORMAL": 9,
            "POSITION": 8,
            "TEXCOORD_0": 10
          },
          "indices": 11,
          "material": 1,
          "mode": 4
        }
      ]
    },
    {
      "name": "Object_3",
      "primitives": [
        {
          "attributes": {
            "NORMAL": 13,
            "POSITION": 12,
            "TEXCOORD_0": 14
          },
          "indices": 15,
          "material": 2,
          "mode": 4
        }
      ]
    },
    {
      "name": "Object_4",
      "primitives": [
        {
          "attributes": {
            "NORMAL": 17,
            "POSITION": 16,
            "TEXCOORD_0": 18
          },
          "indices": 19,
          "material": 1,
          "mode": 4
        }
      ]
    },
    {
      "name": "Object_5",
      "primitives": [
        {
          "attributes": {
            "NORMAL": 21,
            "POSITION": 20,
            "TEXCOORD_0": 22
          },
          "indices": 23,
          "material": 3,
          "mode": 4
        }
      ]
    },
    {
      "name": "Object_6",
      "primitives": [
        {
          "attributes": {
            "NORMAL": 25,
            "POSITION": 24,
            "TEXCOORD_0": 26
          },
          "indices": 27,
          "material": 4,
          "mode": 4
        }
      ]
    }
  ],
  "nodes": [
    {
      "children": [
        1
      ],
      "matrix": [
        1.0,
        0.0,
        0.0,
        0.0,
        0.0,
        2.220446049250313e-16,
        -1.0,
        0.0,
        0.0,
        1.0,
        2.220446049250313e-16,
        0.0,
        0.0,
        0.0,
        0.0,
        1.0
      ],
      "name": "Sketchfab_model"
    },
    {
      "children": [
        2
      ],
      "name": "root"
    },
    {
      "children": [
        3,
        5,
        7,
        9,
        11,
        13,
        15
      ],
      "matrix": [
        1.0,
        0.0,
        0.0,
        0.0,
        0.0,
        2.220446049250313e-16,
        1.0,
        0.0,
        0.0,
        -1.0,
        2.220446049250313e-16,
        0.0,
        0.0,
        0.0,
        0.0,
        1.0
      ],
      "name": "GLTF_SceneRootNode"
    },
    {
      "children": [
        4
      ],
      "matrix": [
        0.22997546195983887,
        0.0,
        0.0,
        0.0,
        0.0,
        0.6994063854217529,
        0.0,
        0.0,
        0.0,
        0.0,
        0.22997546195983887,
        0.0,
        0.019290976226329803,
        1.5384882688522339,
        0.0,
        1.0
      ],
      "name": "Cylinder_2"
    },
    {
      "mesh": 0,
      "name": "Object_4"
    },
    {
      "children": [
        6
      ],
      "matrix": [
        0.22997546195983887,
        0.0,
        0.0,
        0.0,
        0.0,
        0.6994063854217529,
        0.0,
        0.0,
        0.0,
        0.0,
        0.22997546195983887,
        0.0,
        0.019290976226329803,
        1.5384882688522339,
        0.0,
        1.0
      ],
      "name": "Cylinder.001_3"
    },
    {
      "mesh": 1,
      "name": "Object_6"
    },
    {
      "children": [
        8
      ],
      "matrix": [
        0.22997546195983887,
        0.0,
        0.0,
        0.0,
        0.0,
        0.6994063854217529,
        0.0,
        0.0,
        0.0,
        0.0,
        0.22997546195983887,
        0.0,
        0.019290976226329803,
        1.5384882688522339,
        0.0,
        1.0
      ],
      "name": "Cylinder.002_4"
    },
    {
      "mesh": 2,
      "name": "Object_8"
    },
    {
      "children": [
        10
      ],
      "matrix": [
        0.22997546195983887,
        0.0,
        0.0,
        0.0,
        0.0,
        0.6994063854217529,
        0.0,
        0.0,
        0.0,
        0.0,
        0.22997546195983887,
        0.0,
        0.019290976226329803,
        1.5384882688522339,
        0.0,
        1.0
      ],
      "name": "Cylinder.003_5"
    },
    {
      "mesh": 3,
      "name": "Object_10"
    },
    {
      "children": [
        12
      ],
      "matrix": [
        0.22997546195983887,
        0.0,
        0.0,
        0.0,
        0.0,
        0.6994063854217529,
        0.0,
        0.0,
        0.0,
        0.0,
        0.22997546195983887,
        0.0,
        0.019290976226329803,
        1.5384882688522339,
        0.0,
        1.0
      ],
      "name": "Cylinder.005_7"
    },
    {
      "mesh": 4,
      "name": "Object_12"
    },
    {
      "children": [
        14
      ],
      "matrix": [
        0.0696130245923996,
        0.0,
        0.0,
        0.0,
        -0.0,
        -1.5635660886764526,
        -0.0,
        -0.0,
        0.0,
        0.0,
        0.0696130245923996,
        0.0,
        0.020266108214855194,
        1.6041183471679688,
        0.0,
        1.0
      ],
      "name": "Cylinder.006_8"
    },
    {
      "mesh": 5,
      "name": "Object_14"
    },
    {
      "children": [
        16
      ],
      "matrix": [
        0.22997546195983887,
        0.0,
        0.0,
        0.0,
        0.0,
        0.6994063854217529,
        0.0,
        0.0,
        0.0,
        0.0,
        0.22997546195983887,
        0.0,
        0.019290976226329803,
        1.5384882688522339,
        0.0,
        1.0
      ],
      "name": "Cylinder.007_11"
    },
    {
      "mesh": 6,
      "name": "Object_16"
    }
  ],
  "samplers": [
    {
      "magFilter": 9729,
      "minFilter": 9987,
      "wrapS": 10497,
      "wrapT": 10497
    }
  ],
  "scene": 0,
  "scenes": [
    {
      "name": "Sketchfab_Scene",
      "nodes": [
        0
      ]
    }
  ],
  "textures": [
    {
      "sampler": 0,
      "source": 0
    },
    {
      "sampler": 0,
      "source": 1
    }
  ]
}
