{
  "accessors": [
    {
      "bufferView": 2,
      "componentType": 5126,
      "count": 28,
      "max": [
        3.5,
        10.5,
        10.800000190734863
      ],
      "min": [
        -3.5,
        5.5,
        10.649999618530273
      ],
      "type": "VEC3"
    },
    {
      "bufferView": 2,
      "byteOffset": 336,
      "componentType": 5126,
      "count": 28,
      "max": [
        1.0,
        1.0,
        0.9999489784240723
      ],
      "min": [
        -1.0,
        -1.0,
        0.0
      ],
      "type": "VEC3"
    },
    {
      "bufferView": 1,
      "componentType": 5126,
      "count": 28,
      "max": [
        0.9953150153160095,
        1.0
      ],
      "min": [
        0.0,
        -0.00545499986037612
      ],
      "type": "VEC2"
    },
    {
      "bufferView": 0,
      "componentType": 5125,
      "count": 54,
      "type": "SCALAR"
    },
    {
      "bufferView": 2,
      "byteOffset": 672,
      "componentType": 5126,
      "count": 5222,
      "max": [
        9.343134880065918,
        13.501932144165039,
        16.700000762939453
      ],
      "min": [
        -9.343134880065918,
        -16.450000762939453,
        -11.794354438781738
      ],
      "type": "VEC3"
    },
    {
      "bufferView": 2,
      "byteOffset": 63336,
      "componentType": 5126,
      "count": 5222,
      "max": [
        0.999966561794281,
        0.9996896386146545,
        1.0
      ],
      "min": [
        -1.0,
        -1.0,
        -1.0
      ],
      "type": "VEC3"
    },
    {
      "bufferView": 0,
      "byteOffset": 216,
      "componentType": 5125,
      "count": 22104,
      "type": "SCALAR"
    },
    {
      "bufferView": 2,
      "byteOffset": 126000,
      "componentType": 5126,
      "count": 12560,
      "max": [
        11.449999809265137,
        22.59711456298828,
        11.449999809265137
      ],
      "min": [
        -11.449999809265137,
        12.314632415771484,
        -11.449999809265137
      ],
      "type": "VEC3"
    },
    {
      "bufferView": 2,
      "byteOffset": 276720,
      "componentType": 5126,
      "count": 12560,
      "max": [
        0.9999964833259583,
        1.0,
        0.9999964833259583
      ],
      "min": [
        -0.9999964833259583,
        -1.0,
        -0.9999964833259583
      ],
      "type": "VEC3"
    },
    {
      "bufferView": 0,
      "byteOffset": 88632,
      "componentType": 5125,
      "count": 59232,
      "type": "SCALAR"
    },
    {
      "bufferView": 2,
      "byteOffset": 427440,
      "componentType": 5126,
      "count": 13225,
      "max": [
        11.385708808898926,
        19.486780166625977,
        17.200000762939453
      ],
      "min": [
        -11.385708808898926,
        -16.649999618530273,
        -13.00017261505127
      ],
      "type": "VEC3"
    },
    {
      "bufferView": 2,
      "byteOffset": 586140,
      "componentType": 5126,
      "count": 13225,
      "max": [
        1.0,
        1.0,
        1.0
      ],
      "min": [
        -1.0,
        -1.0,
        -1.0
      ],
      "type": "VEC3"
    },
    {
      "bufferView": 0,
      "byteOffset": 325560,
      "componentType": 5125,
      "count": 52794,
      "type": "SCALAR"
    }
  ],
  "asset": {
    "extras": {
      "author": "Scarecrow_original (https://sketchfab.com/Scarecrow_original)",
      "license": "CC-BY-4.0 (http://creativecommons.org/licenses/by/4.0/)",
      "source": "https://sketchfab.com/3d-models/electric-motor-high-poly-048b9dc3095e44c0883b6b7944ad4916",
      "title": "Electric Motor (high poly)"
    },
    "generator": "Sketchfab-13.31.0",
    "version": "2.0"
  },
  "bufferViews": [
    {
      "buffer": 0,
      "byteLength": 536736,
      "name": "floatBufferViews",
      "target": 34963
    },
    {
      "buffer": 0,
      "byteLength": 224,
      "byteOffset": 536736,
      "byteStride": 8,
      "name": "floatBufferViews",
      "target": 34962
    },
    {
      "buffer": 0,
      "byteLength": 744840,
      "byteOffset": 536960,
      "byteStride": 12,
      "name": "floatBufferViews",
      "target": 34962
    }
  ],
  "buffers": [
    {
      "byteLength": 1281800,
      "uri": "scene.bin"
    }
  ],
  "images": [
    {
      "uri": "textures/plate_baseColor.png"
    }
  ],
  "materials": [
    {
      "doubleSided": true,
      "name": "black",
      "pbrMetallicRoughness": {
        "baseColorFactor": [
          0.016789177993879932,
          0.016789177993879932,
          0.016789177993879932,
          1.0
        ],
        "roughnessFactor": 0.325
      }
    },
    {
      "doubleSided": true,
      "name": "metal",
      "pbrMetallicRoughness": {
        "roughnessFactor": 0.2
      }
    },
    {
      "doubleSided": true,
      "name": "plate",
      "pbrMetallicRoughness": {
        "baseColorTexture": {
          "index": 0
        },
        "metallicFactor": 0.7360022430544549,
        "roughnessFactor": 0.3032390193951067
      }
    }
  ],
  "meshes": [
    {
      "name": "Object_0",
      "primitives": [
        {
          "attributes": {
            "NORMAL": 1,
            "POSITION": 0,
            "TEXCOORD_0": 2
          },
          "indices": 3,
          "material": 2,
          "mode": 4
        }
      ]
    },
    {
      "name": "Object_1",
      "primitives": [
        {
          "attributes": {
            "NORMAL": 5,
            "POSITION": 4
          },
          "indices": 6,
          "material": 1,
          "mode": 4
        }
      ]
    },
    {
      "name": "Object_2",
      "primitives": [
        {
          "attributes": {
            "NORMAL": 8,
            "POSITION": 7
          },
          "indices": 9,
          "material": 0,
          "mode": 4
        }
      ]
    },
    {
      "name": "Object_3",
      "primitives": [
        {
          "attributes": {
            "NORMAL": 11,
            "POSITION": 10
          },
          "indices": 12,
          "material": 0,
          "mode": 4
        }
      ]
    }
  ],
  "nodes": [
    {
      "children": [
        1
      ],
      "matrix": [
        1.0,
        0.0,
        0.0,
        0.0,
        0.0,
        2.220446049250313e-16,
        -1.0,
        0.0,
        0.0,
        1.0,
        2.220446049250313e-16,
        0.0,
        0.0,
        0.0,
        0.0,
        1.0
      ],
      "name": "Sketchfab_model"
    },
    {
      "children": [
        2,
        3,
        4,
        5
      ],
      "name": "Motor.obj.cleaner.materialmerger.gles"
    },
    {
      "mesh": 0,
      "name": "Object_2"
    },
    {
      "mesh": 1,
      "name": "Object_3"
    },
    {
      "mesh": 2,
      "name": "Object_4"
    },
    {
      "mesh": 3,
      "name": "Object_5"
    }
  ],
  "samplers": [
    {
      "magFilter": 9729,
      "minFilter": 9987,
      "wrapS": 10497,
      "wrapT": 10497
    }
  ],
  "scene": 0,
  "scenes": [
    {
      "name": "Sketchfab_Scene",
      "nodes": [
        0
      ]
    }
  ],
  "textures": [
    {
      "sampler": 0,
      "source": 0
    }
  ]
}
