{
  "accessors": [
    {
      "bufferView": 2,
      "componentType": 5126,
      "count": 2625,
      "max": [
        0.05000000074505806,
        0.03615700080990791,
        0.03720099851489067
      ],
      "min": [
        -0.05000000074505806,
        -0.03615700080990791,
        -0.03720099851489067
      ],
      "type": "VEC3"
    },
    {
      "bufferView": 2,
      "byteOffset": 31500,
      "componentType": 5126,
      "count": 2625,
      "max": [
        0.9999409914016724,
        0.9997605681419373,
        0.9995326399803162
      ],
      "min": [
        -0.9990975260734558,
        -0.9982020258903503,
        -0.9988352656364441
      ],
      "type": "VEC3"
    },
    {
      "bufferView": 3,
      "componentType": 5126,
      "count": 2625,
      "max": [
        0.9998928308486938,
        0.9986330270767212,
        0.9999065399169922,
        1.0
      ],
      "min": [
        -0.9664496779441833,
        -0.9999116659164429,
        -0.9226506948471069,
        1.0
      ],
      "type": "VEC4"
    },
    {
      "bufferView": 1,
      "componentType": 5126,
      "count": 2625,
      "max": [
        0.999904990196228,
        0.7829909920692444
      ],
      "min": [
        8.399999933317304e-05,
        4.199999966658652e-05
      ],
      "type": "VEC2"
    },
    {
      "bufferView": 0,
      "componentType": 5125,
      "count": 15000,
      "type": "SCALAR"
    }
  ],
  "asset": {
    "extras": {
      "author": "Loïc Norgeot (https://sketchfab.com/norgeotloic)",
      "license": "CC-BY-4.0 (http://creativecommons.org/licenses/by/4.0/)",
      "source": "https://sketchfab.com/3d-models/rock-scan-11-6195afc03d5f4c539273aa24873ef808",
      "title": "Rock Scan - 11"
    },
    "generator": "Sketchfab-13.23.0",
    "version": "2.0"
  },
  "bufferViews": [
    {
      "buffer": 0,
      "byteLength": 60000,
      "name": "floatBufferViews",
      "target": 34963
    },
    {
      "buffer": 0,
      "byteLength": 21000,
      "byteOffset": 60000,
      "byteStride": 8,
      "name": "floatBufferViews",
      "target": 34962
    },
    {
      "buffer": 0,
      "byteLength": 63000,
      "byteOffset": 81000,
      "byteStride": 12,
      "name": "floatBufferViews",
      "target": 34962
    },
    {
      "buffer": 0,
      "byteLength": 42000,
      "byteOffset": 144000,
      "byteStride": 16,
      "name": "floatBufferViews",
      "target": 34962
    }
  ],
  "buffers": [
    {
      "byteLength": 186000,
      "uri": "scene.bin"
    }
  ],
  "images": [
    {
      "uri": "textures/rock_001_preview_baseColor.jpeg"
    },
    {
      "uri": "textures/rock_001_preview_metallicRoughness.png"
    },
    {
      "uri": "textures/rock_001_preview_normal.jpeg"
    }
  ],
  "materials": [
    {
      "doubleSided": true,
      "name": "rock_001_preview",
      "normalTexture": {
        "index": 2
      },
      "occlusionTexture": {
        "index": 1
      },
      "pbrMetallicRoughness": {
        "baseColorTexture": {
          "index": 0
        },
        "metallicFactor": 0.0,
        "metallicRoughnessTexture": {
          "index": 1
        }
      }
    }
  ],
  "meshes": [
    {
      "name": "Object_0",
      "primitives": [
        {
          "attributes": {
            "NORMAL": 1,
            "POSITION": 0,
            "TANGENT": 2,
            "TEXCOORD_0": 3
          },
          "indices": 4,
          "material": 0,
          "mode": 4
        }
      ]
    }
  ],
  "nodes": [
    {
      "children": [
        1
      ],
      "matrix": [
        0.9804176092147827,
        -0.19692958891391754,
        -2.984936496062519e-17,
        0.0,
        -0.08298782259225845,
        -0.4131564199924471,
        0.9068709015846251,
        0.0,
        -0.17858970165252686,
        -0.8891122341156005,
        -0.4214085936546328,
        0.0,
        0.0,
        0.0,
        0.0,
        1.0
      ],
      "name": "Sketchfab_model"
    },
    {
      "children": [
        2
      ],
      "name": "rock_001_preview.obj.cleaner.materialmerger.gles"
    },
    {
      "mesh": 0,
      "name": "Object_2"
    }
  ],
  "samplers": [
    {
      "magFilter": 9729,
      "minFilter": 9987,
      "wrapS": 10497,
      "wrapT": 10497
    }
  ],
  "scene": 0,
  "scenes": [
    {
      "name": "Sketchfab_Scene",
      "nodes": [
        0
      ]
    }
  ],
  "textures": [
    {
      "sampler": 0,
      "source": 0
    },
    {
      "sampler": 0,
      "source": 1
    },
    {
      "sampler": 0,
      "source": 2
    }
  ]
}
