{
  "accessors": [
    {
      "bufferView": 2,
      "componentType": 5126,
      "count": 2612,
      "max": [
        1.6953840255737305,
        1.1668410301208496,
        -7.214677810668945
      ],
      "min": [
        -2.0584158897399902,
        -1.1883230209350586,
        -9.59543514251709
      ],
      "type": "VEC3"
    },
    {
      "bufferView": 2,
      "byteOffset": 31344,
      "componentType": 5126,
      "count": 2612,
      "max": [
        0.9991888999938965,
        0.9998895525932312,
        0.9999707341194153
      ],
      "min": [
        -0.9746672511100769,
        -0.9996732473373413,
        -0.999726414680481
      ],
      "type": "VEC3"
    },
    {
      "bufferView": 3,
      "componentType": 5126,
      "count": 2612,
      "max": [
        0.9978755116462708,
        0.9997028112411499,
        0.9999687671661377,
        1.0
      ],
      "min": [
        -0.9720869064331055,
        -0.9999921917915344,
        -0.9960050582885742,
        1.0
      ],
      "type": "VEC4"
    },
    {
      "bufferView": 1,
      "componentType": 5126,
      "count": 2612,
      "max": [
        0.9999449849128723,
        0.9205629825592041
      ],
      "min": [
        6.399999983841553e-05,
        4.199999966658652e-05
      ],
      "type": "VEC2"
    },
    {
      "bufferView": 0,
      "componentType": 5125,
      "count": 13470,
      "type": "SCALAR"
    }
  ],
  "asset": {
    "extras": {
      "author": "Kless Gyzen (https://sketchfab.com/klessgyzen)",
      "license": "CC-BY-4.0 (http://creativecommons.org/licenses/by/4.0/)",
      "source": "https://sketchfab.com/3d-models/sandstone-full-360-mesh-2e172b0757e8409fa1f32abe4fe41914",
      "title": "Sandstone Full 360 Mesh"
    },
    "generator": "Sketchfab-12.68.0",
    "version": "2.0"
  },
  "bufferViews": [
    {
      "buffer": 0,
      "byteLength": 53880,
      "name": "floatBufferViews",
      "target": 34963
    },
    {
      "buffer": 0,
      "byteLength": 20896,
      "byteOffset": 53880,
      "byteStride": 8,
      "name": "floatBufferViews",
      "target": 34962
    },
    {
      "buffer": 0,
      "byteLength": 62688,
      "byteOffset": 74776,
      "byteStride": 12,
      "name": "floatBufferViews",
      "target": 34962
    },
    {
      "buffer": 0,
      "byteLength": 41792,
      "byteOffset": 137464,
      "byteStride": 16,
      "name": "floatBufferViews",
      "target": 34962
    }
  ],
  "buffers": [
    {
      "byteLength": 179256,
      "uri": "scene.bin"
    }
  ],
  "images": [
    {
      "uri": "textures/mat-0_baseColor.png"
    },
    {
      "uri": "textures/mat-0_normal.png"
    }
  ],
  "materials": [
    {
      "doubleSided": true,
      "name": "mat-0",
      "normalTexture": {
        "index": 1
      },
      "pbrMetallicRoughness": {
        "baseColorTexture": {
          "index": 0
        },
        "metallicFactor": 0.0
      }
    }
  ],
  "meshes": [
    {
      "name": "mat-0",
      "primitives": [
        {
          "attributes": {
            "NORMAL": 1,
            "POSITION": 0,
            "TANGENT": 2,
            "TEXCOORD_0": 3
          },
          "indices": 4,
          "material": 0,
          "mode": 4
        }
      ]
    }
  ],
  "nodes": [
    {
      "children": [
        1
      ],
      "matrix": [
        1.0,
        0.0,
        0.0,
        0.0,
        0.0,
        0.9683296084403992,
        -0.2496754080057142,
        0.0,
        0.0,
        0.2496754080057142,
        0.9683296084403992,
        0.0,
        0.0,
        -6.296119689941408,
        8.14692687988281,
        1.0
      ],
      "name": "Sketchfab_model"
    },
    {
      "children": [
        2
      ],
      "name": "Collada visual scene group"
    },
    {
      "children": [
        3
      ],
      "name": "mesh1"
    },
    {
      "mesh": 0,
      "name": "mat-0"
    }
  ],
  "samplers": [
    {
      "magFilter": 9729,
      "minFilter": 9987,
      "wrapS": 10497,
      "wrapT": 10497
    }
  ],
  "scene": 0,
  "scenes": [
    {
      "name": "Sketchfab_Scene",
      "nodes": [
        0
      ]
    }
  ],
  "textures": [
    {
      "sampler": 0,
      "source": 0
    },
    {
      "sampler": 0,
      "source": 1
    }
  ]
}
