{
  "accessors": [
    {
      "bufferView": 2,
      "componentType": 5126,
      "count": 65532,
      "max": [
        16.817819595336914,
        14.507539749145508,
        15.921741485595703
      ],
      "min": [
        -13.387716293334961,
        -13.182733535766602,
        -0.36002159118652344
      ],
      "type": "VEC3"
    },
    {
      "bufferView": 2,
      "byteOffset": 786384,
      "componentType": 5126,
      "count": 65532,
      "max": [
        0.9999752044677734,
        0.9999995231628418,
        0.9999901652336121
      ],
      "min": [
        -0.9999433159828186,
        -0.9999328851699829,
        -0.9999839663505554
      ],
      "type": "VEC3"
    },
    {
      "bufferView": 1,
      "componentType": 5126,
      "count": 65532,
      "max": [
        0.9997410178184509,
        0.9968259930610657
      ],
      "min": [
        0.00024399999529123306,
        0.0002570000069681555
      ],
      "type": "VEC2"
    },
    {
      "bufferView": 0,
      "componentType": 5125,
      "count": 330753,
      "type": "SCALAR"
    },
    {
      "bufferView": 2,
      "byteOffset": 1572768,
      "componentType": 5126,
      "count": 61822,
      "max": [
        16.76788330078125,
        14.507539749145508,
        15.667238235473633
      ],
      "min": [
        -13.387716293334961,
        -13.188108444213867,
        -0.3781871795654297
      ],
      "type": "VEC3"
    },
    {
      "bufferView": 2,
      "byteOffset": 2314632,
      "componentType": 5126,
      "count": 61822,
      "max": [
        0.9998217821121216,
        0.9999858736991882,
        0.9999986290931702
      ],
      "min": [
        -0.9999042749404907,
        -0.9999975562095642,
        -0.9999693036079407
      ],
      "type": "VEC3"
    },
    {
      "bufferView": 1,
      "byteOffset": 524256,
      "componentType": 5126,
      "count": 61822,
      "max": [
        0.999754011631012,
        0.9987789988517761
      ],
      "min": [
        0.00024399999529123306,
        0.5002440214157104
      ],
      "type": "VEC2"
    },
    {
      "bufferView": 0,
      "byteOffset": 1323012,
      "componentType": 5125,
      "count": 269247,
      "type": "SCALAR"
    }
  ],
  "asset": {
    "extras": {
      "author": "EDUROCK – EDUCATIONAL VIRTUAL ROCK COLLECTION (https://sketchfab.com/EDUROCK_AALTO)",
      "license": "CC-BY-4.0 (http://creativecommons.org/licenses/by/4.0/)",
      "source": "https://sketchfab.com/3d-models/quartz-40dbf45ad43b485fa9188a5507e8fed4",
      "title": "Quartz"
    },
    "generator": "Sketchfab-12.68.0",
    "version": "2.0"
  },
  "bufferViews": [
    {
      "buffer": 0,
      "byteLength": 2400000,
      "name": "floatBufferViews",
      "target": 34963
    },
    {
      "buffer": 0,
      "byteLength": 1018832,
      "byteOffset": 2400000,
      "byteStride": 8,
      "name": "floatBufferViews",
      "target": 34962
    },
    {
      "buffer": 0,
      "byteLength": 3056496,
      "byteOffset": 3418832,
      "byteStride": 12,
      "name": "floatBufferViews",
      "target": 34962
    }
  ],
  "buffers": [
    {
      "byteLength": 6475328,
      "uri": "scene.bin"
    }
  ],
  "extensionsUsed": [
    "KHR_materials_unlit"
  ],
  "images": [
    {
      "uri": "textures/model_Material_u1_v1_baseColor.jpeg"
    }
  ],
  "materials": [
    {
      "doubleSided": true,
      "extensions": {
        "KHR_materials_unlit": {}
      },
      "name": "model_Material_u1_v1",
      "pbrMetallicRoughness": {
        "baseColorTexture": {
          "index": 0
        },
        "metallicFactor": 0.0
      }
    }
  ],
  "meshes": [
    {
      "name": "Object_0",
      "primitives": [
        {
          "attributes": {
            "NORMAL": 1,
            "POSITION": 0,
            "TEXCOORD_0": 2
          },
          "indices": 3,
          "material": 0,
          "mode": 4
        }
      ]
    },
    {
      "name": "Object_1",
      "primitives": [
        {
          "attributes": {
            "NORMAL": 5,
            "POSITION": 4,
            "TEXCOORD_0": 6
          },
          "indices": 7,
          "material": 0,
          "mode": 4
        }
      ]
    }
  ],
  "nodes": [
    {
      "children": [
        1
      ],
      "matrix": [
        0.012500000186264515,
        0.0,
        0.0,
        0.0,
        0.0,
        2.775557602921922e-18,
        -0.012500000186264515,
        0.0,
        0.0,
        0.012500000186264515,
        2.775557602921922e-18,
        0.0,
        0.0,
        0.0,
        0.0,
        1.0
      ],
      "name": "Sketchfab_model"
    },
    {
      "children": [
        2,
        3
      ],
      "name": "model.obj.cleaner.materialmerger.gles"
    },
    {
      "mesh": 0,
      "name": "Object_2"
    },
    {
      "mesh": 1,
      "name": "Object_3"
    }
  ],
  "samplers": [
    {
      "magFilter": 9729,
      "minFilter": 9987,
      "wrapS": 10497,
      "wrapT": 10497
    }
  ],
  "scene": 0,
  "scenes": [
    {
      "name": "Sketchfab_Scene",
      "nodes": [
        0
      ]
    }
  ],
  "textures": [
    {
      "sampler": 0,
      "source": 0
    }
  ]
}
